# Blender 5.1.0
# www.blender.org
mtllib mag.mtl
o 137009270649191
v 0.071562 0.146644 -0.354029
v 0.071562 -0.354028 -0.146643
v 0.071562 -0.146643 -0.354029
v 0.071562 0.354029 -0.146643
v 0.071562 -0.354028 0.146643
v 0.071562 0.354029 0.146643
v 0.071562 0.146644 0.354029
v 0.071562 -0.146643 0.354029
v 0.071562 -0.146643 0.354029
v 0.071562 0.146644 0.354029
v -0.071562 -0.150159 0.362517
v -0.071562 0.150160 0.362517
v -0.071562 -0.362517 0.150160
v -0.071562 0.362518 0.150159
v 0.071562 -0.354028 0.146643
v 0.071562 0.354029 0.146643
v -0.071562 -0.362517 -0.150159
v 0.071562 0.354029 -0.146643
v 0.071562 -0.354028 -0.146643
v -0.071562 0.362518 -0.150160
v 0.071562 -0.146643 -0.354029
v 0.071562 0.146644 -0.354029
v -0.071562 -0.150159 -0.362517
v -0.071562 0.150160 -0.362517
vn 1.0000 -0.0000 -0.0000
vn 0.0641 -0.3819 0.9220
vn 0.0641 0.3819 0.9220
vn 0.0641 -0.9220 0.3819
vn 0.0641 0.9220 0.3819
vn 0.0641 -0.9220 -0.3819
vn 0.0641 0.9220 -0.3819
vn 0.0641 -0.3819 -0.9220
vn 0.0641 0.3819 -0.9220
vt 0.000000 0.000000
s 1
f 1/1/1 2/1/1 3/1/1
f 4/1/1 2/1/1 1/1/1
f 2/1/1 4/1/1 5/1/1
f 6/1/1 5/1/1 4/1/1
f 5/1/1 6/1/1 7/1/1
f 5/1/1 7/1/1 8/1/1
f 9/1/2 10/1/3 11/1/2
f 11/1/2 10/1/3 12/1/3
f 13/1/4 9/1/2 11/1/2
f 10/1/3 14/1/5 12/1/3
f 13/1/4 15/1/4 9/1/2
f 14/1/5 10/1/3 16/1/5
f 17/1/6 15/1/4 13/1/4
f 18/1/7 14/1/5 16/1/5
f 19/1/6 15/1/4 17/1/6
f 20/1/7 14/1/5 18/1/7
f 17/1/6 21/1/8 19/1/6
f 22/1/9 20/1/7 18/1/7
f 21/1/8 17/1/6 23/1/8
f 23/1/8 22/1/9 21/1/8
f 24/1/9 20/1/7 22/1/9
f 22/1/9 23/1/8 24/1/9
o 118719220040514
v 0.077949 0.013127 -0.100000
v 0.077949 0.013127 0.100000
v 0.077949 -0.086873 0.000000
v 0.077949 -0.057584 0.070711
v 0.077949 -0.057584 -0.070711
v 0.077949 0.113127 -0.000000
v 0.077949 0.083838 0.070711
v 0.077949 0.083838 -0.070711
v -0.147377 -0.086873 0.000000
v -0.147376 0.013127 0.100000
v -0.147376 0.013127 -0.100000
v -0.147377 -0.057584 0.070711
v -0.147377 -0.057584 -0.070711
v -0.147376 0.113127 -0.000000
v -0.147376 0.083838 -0.070711
v -0.147376 0.083838 0.070711
v -0.141519 0.146644 -0.354029
v -0.141519 -0.354028 -0.146643
v -0.141519 0.354029 -0.146643
v -0.141519 -0.146643 -0.354029
v -0.141519 0.354029 0.146643
v -0.141519 -0.354028 0.146643
v -0.141519 0.146644 0.354029
v -0.141519 -0.146643 0.354029
v -0.085273 -0.149673 0.361343
v -0.085273 0.149673 0.361343
v -0.141519 -0.146643 0.354029
v -0.085273 -0.361342 0.149673
v -0.141519 0.146644 0.354029
v -0.141519 -0.354028 0.146643
v -0.085273 0.361343 0.149673
v -0.141519 -0.354028 -0.146643
v -0.141519 0.354029 0.146643
v -0.085273 -0.361342 -0.149673
v -0.085273 0.361343 -0.149673
v -0.141519 -0.146643 -0.354029
v -0.141519 0.354029 -0.146643
v -0.085273 -0.149673 -0.361343
v -0.141519 0.146644 -0.354029
v -0.085273 0.149673 -0.361343
v -0.072150 0.150160 0.362517
v -0.085273 0.361343 0.149673
v -0.085273 0.149673 0.361343
v -0.072150 0.362517 0.150160
v -0.072150 -0.150159 0.362517
v -0.085273 0.361343 -0.149673
v -0.085273 -0.149673 0.361343
v -0.072150 0.362517 -0.150160
v -0.072150 -0.362517 0.150160
v -0.072150 0.150160 -0.362517
v -0.085273 -0.361342 0.149673
v -0.085273 0.149673 -0.361343
v -0.072150 -0.362517 -0.150160
v -0.072150 -0.150159 -0.362517
v -0.085273 -0.361342 -0.149673
v -0.085273 -0.149673 -0.361343
v 0.077949 -0.057584 0.070711
v -0.147376 0.013127 0.100000
v -0.147377 -0.057584 0.070711
v -0.147377 -0.086873 0.000000
v 0.077949 0.013127 0.100000
v 0.077949 -0.086873 0.000000
v 0.077949 0.083838 0.070711
v -0.147377 -0.057584 -0.070711
v -0.147376 0.083838 0.070711
v 0.077949 -0.057584 -0.070711
v 0.077949 0.113127 -0.000000
v -0.147376 0.013127 -0.100000
v -0.147376 0.113127 -0.000000
v 0.077949 0.013127 -0.100000
v 0.077949 0.083838 -0.070711
v -0.147376 0.083838 -0.070711
vn 1.0000 -0.0000 -0.0000
vn -1.0000 -0.0000 -0.0000
vn -0.1394 -0.3790 0.9149
vn -0.1394 0.3790 0.9149
vn -0.1394 -0.3789 0.9149
vn -0.1394 -0.9149 0.3789
vn -0.1394 0.9149 0.3789
vn -0.1394 -0.9149 -0.3789
vn -0.1394 0.9149 -0.3789
vn -0.1394 -0.3789 -0.9149
vn -0.1394 -0.3790 -0.9149
vn -0.1394 0.3790 -0.9149
vn -0.0964 0.3809 0.9196
vn -0.0964 0.9196 0.3809
vn -0.0964 -0.3809 0.9196
vn -0.0964 0.9196 -0.3809
vn -0.0965 -0.9196 0.3809
vn -0.0964 0.3809 -0.9196
vn -0.0965 -0.9196 -0.3809
vn -0.0964 -0.3809 -0.9196
vn -0.0000 -0.7071 0.7071
vn -0.0000 -0.0000 1.0000
vn -0.0000 -1.0000 -0.0000
vn -0.0000 0.7071 0.7071
vn -0.0000 -0.7071 -0.7071
vn -0.0000 1.0000 -0.0000
vn -0.0000 -0.0000 -1.0000
vn -0.0000 0.7071 -0.7071
vt 0.000000 0.000000
s 1
f 25/2/10 26/2/10 27/2/10
f 27/2/10 26/2/10 28/2/10
f 25/2/10 27/2/10 29/2/10
f 25/2/10 30/2/10 26/2/10
f 26/2/10 30/2/10 31/2/10
f 30/2/10 25/2/10 32/2/10
f 33/2/11 34/2/11 35/2/11
f 34/2/11 33/2/11 36/2/11
f 33/2/11 35/2/11 37/2/11
f 34/2/11 38/2/11 35/2/11
f 35/2/11 38/2/11 39/2/11
f 38/2/11 34/2/11 40/2/11
f 41/2/11 42/2/11 43/2/11
f 42/2/11 41/2/11 44/2/11
f 43/2/11 42/2/11 45/2/11
f 46/2/11 45/2/11 42/2/11
f 46/2/11 47/2/11 45/2/11
f 47/2/11 46/2/11 48/2/11
f 49/2/12 50/2/13 51/2/14
f 51/2/14 52/2/15 49/2/12
f 51/2/14 50/2/13 53/2/13
f 52/2/15 51/2/14 54/2/15
f 55/2/16 53/2/13 50/2/13
f 56/2/17 52/2/15 54/2/15
f 57/2/16 53/2/13 55/2/16
f 58/2/17 52/2/15 56/2/17
f 59/2/18 57/2/16 55/2/16
f 60/2/19 58/2/17 56/2/17
f 57/2/16 59/2/18 61/2/18
f 62/2/20 58/2/17 60/2/19
f 59/2/18 63/2/21 61/2/18
f 60/2/19 64/2/21 62/2/20
f 63/2/21 59/2/18 64/2/21
f 64/2/21 60/2/19 63/2/21
f 65/2/22 66/2/23 67/2/22
f 66/2/23 65/2/22 68/2/23
f 67/2/22 69/2/24 65/2/22
f 68/2/23 70/2/25 66/2/23
f 69/2/24 67/2/22 71/2/24
f 70/2/25 68/2/23 72/2/25
f 71/2/24 73/2/26 69/2/24
f 72/2/25 74/2/27 70/2/25
f 73/2/26 71/2/24 75/2/26
f 70/2/25 74/2/27 76/2/27
f 75/2/26 77/2/28 73/2/26
f 74/2/27 78/2/29 76/2/27
f 77/2/28 75/2/26 79/2/28
f 79/2/28 78/2/29 77/2/28
f 78/2/29 79/2/28 80/2/29
f 76/2/27 78/2/29 80/2/29
f 81/2/30 82/2/31 83/2/30
f 84/2/32 81/2/30 83/2/30
f 82/2/31 81/2/30 85/2/31
f 84/2/32 86/2/32 81/2/30
f 82/2/31 85/2/31 87/2/33
f 88/2/34 86/2/32 84/2/32
f 82/2/31 87/2/33 89/2/33
f 88/2/34 90/2/34 86/2/32
f 91/2/35 89/2/33 87/2/33
f 92/2/36 90/2/34 88/2/34
f 89/2/33 91/2/35 93/2/35
f 92/2/36 94/2/36 90/2/34
f 95/2/37 93/2/35 91/2/35
f 96/2/37 94/2/36 92/2/36
f 93/2/35 95/2/37 96/2/37
f 96/2/37 95/2/37 94/2/36
